<?xml version="1.0" standalone="no"?><!DOCTYPE svg PUBLIC "-//W3C//DTD SVG 1.1//EN" "http://www.w3.org/Graphics/SVG/1.1/DTD/svg11.dtd"><svg t="1572058115492" class="icon" viewBox="0 0 1303 1024" version="1.1" xmlns="http://www.w3.org/2000/svg" p-id="2181" xmlns:xlink="http://www.w3.org/1999/xlink" width="81.4375" height="64"><defs><style type="text/css"></style></defs><path d="M605.060303 307.18914m-307.18914 0a307.18914 307.18914 0 1 0 614.37828 0 307.18914 307.18914 0 1 0-614.37828 0Z" fill="#C9EAF2" p-id="2182"></path><path d="M460.012642 1023.95656a242.028465 242.028465 0 1 1 47.39353-480.364493 353.865903 353.865903 0 0 1 669.525931 25.738466 242.071906 242.071906 0 0 1-101.47689 454.235063l0.673327 0.412684z" fill="#C9EAF2" p-id="2183"></path><path d="M288.574907 437.510489m-288.574907 0a288.574907 288.574907 0 1 0 577.149814 0 288.574907 288.574907 0 1 0-577.149814 0Z" fill="#C9EAF2" p-id="2184"></path><path d="M530.581652 949.499629a158.275278 158.275278 0 0 1-65.160674-302.541012 139.704486 139.704486 0 0 1 198.501135-46.307519 232.79737 232.79737 0 0 1 422.24117 41.398748 158.296999 158.296999 0 0 1-30.408314 305.842486l3.366635 1.585577z" fill="#FFFFFF" p-id="2185"></path><path d="M1005.516089 358.557472s-55.560335-42.680242-77.150239-64.291866-45.41699-98.457779-45.41699-98.457779l-53.996479 155.53853s18.35359 52.932188 53.996479 64.813151 122.567229-57.602036 122.567229-57.602036z" fill="#C9EAF2" p-id="2186"></path></svg>