<svg xmlns="http://www.w3.org/2000/svg" xlink="http://www.w3.org/1999/xlink" width="0" height="0" style="display:none;"><symbol id="m-icon-community"><defs><style type="text/css"/></defs><path d="M893.956439 292.783736l1.486212 28.238025c0 26.751813 0 23.77939 0 47.558779 0 255.62844-199.152389 432.487651-474.101583 432.487651-35.669085 0-95.117559 0-95.117559 0 75.796805 74.310593 163.483304 120.383161 285.352677 120.383161 25.265602 0 50.531203-2.972424 75.796805-5.944847L864.232202 1023.99997 864.232202 842.682124c96.603771-66.879534 157.538457-169.428152 157.538457-286.838889C1021.770659 451.808405 972.725668 358.177058 893.956439 292.783736z" p-id="3574"/><path d="M345.544264 726.757599c25.265602 4.458636 80.25544 8.917271 107.007254 8.917271 227.390414 0 378.984024-170.914364 378.984024-371.552965C831.535541 163.483304 641.300423 0 452.551517 0 225.161103 0 40.870833 163.483304 40.870833 364.121905c0 115.924525 44.586356 215.500719 126.328008 286.838889L167.198841 832.278641 345.544264 726.757599zM626.438305 319.53555c26.751813 0 47.558779 20.806966 47.558779 47.558779 0 26.751813-20.806966 47.558779-47.558779 47.558779-26.751813 0-47.558779-20.806966-47.558779-47.558779C578.879525 341.828727 599.686491 319.53555 626.438305 319.53555zM436.203187 319.53555c26.751813 0 47.558779 20.806966 47.558779 47.558779 0 26.751813-20.806966 47.558779-47.558779 47.558779-26.751813 0-47.558779-20.806966-47.558779-47.558779C388.644408 341.828727 410.937585 319.53555 436.203187 319.53555zM247.454281 319.53555c26.751813 0 47.558779 20.806966 47.558779 47.558779 0 26.751813-20.806966 47.558779-47.558779 47.558779-26.751813 0-47.558779-20.806966-47.558779-47.558779C199.895502 341.828727 220.702468 319.53555 247.454281 319.53555z" p-id="3575"/></symbol><symbol id="m-icon-email"><defs><style type="text/css"/></defs><path d="M972.718545 128.399345 51.253826 128.399345c-27.447119 0-50.722218 23.074531-50.722218 51.52142l0 664.133909c0 28.568662 22.702048 51.544957 50.722218 51.544957l921.464719 0c27.473725 0 50.747801-23.074531 50.747801-51.544957L1023.466346 179.920766C1023.466346 151.352103 1000.791927 128.399345 972.718545 128.399345zM900.395356 230.694149 510.526951 541.620621 123.104247 230.694149 900.395356 230.694149zM921.172565 793.305851 102.826412 793.305851 102.826412 312.783773l367.541911 294.965965c22.102391 17.73185 58.263985 17.532305 80.290651 0l370.513592-295.491944L921.172565 793.305851z" p-id="3691"/></symbol><symbol id="m-icon-explore"><defs><style type="text/css"/></defs><path d="M512 32C248 32 32 248 32 512s216 480 480 480 480-216 480-480S776 32 512 32zM147.2 512c0-72 19.2-134.4 52.8-192V334.4c-43.2 76.8-14.4 182.4 9.6 235.2 24 52.8 177.6 105.6 206.4 105.6 9.6 0 19.2 9.6 19.2 14.4 52.8 96 182.4 144 225.6 158.4-43.2 19.2-96 33.6-148.8 33.6-201.6-4.8-364.8-168-364.8-369.6z m590.4 288c-19.2-28.8-24-76.8-24-96-4.8-28.8 9.6-172.8-19.2-187.2-28.8-14.4-129.6 28.8-168 52.8-38.4 24-91.2 52.8-124.8 38.4-33.6-14.4-48-62.4-33.6-96 14.4-28.8 76.8-28.8 81.6-28.8h28.8c4.8 0 9.6-9.6 4.8-14.4-4.8-9.6-19.2-24-33.6-33.6-19.2-19.2-19.2-52.8 0-100.8s0-91.2-24-105.6c-24-14.4-52.8 9.6-86.4 43.2-38.4 33.6-76.8 28.8-105.6 14.4-4.8 0-4.8-4.8-4.8-4.8C296 200 396.8 147.2 512 147.2c91.2 0 177.6 33.6 244.8 91.2 0 0 0 48-14.4 67.2-9.6 19.2-48 67.2-9.6 86.4 33.6 14.4 96-4.8 129.6 9.6 9.6 33.6 19.2 72 19.2 110.4-4.8 115.2-57.6 220.8-144 288z" fill="" p-id="3807"/></symbol><symbol id="m-icon-max"><defs><style type="text/css"/></defs><path d="M901.688889 122.311111A27.875556 27.875556 0 0 0 881.777778 113.777778h-280.462222a27.875556 27.875556 0 0 0-27.875556 27.875555v56.888889a27.875556 27.875556 0 0 0 27.875556 27.875556h113.777777L551.822222 393.102222a27.875556 27.875556 0 0 0 0 39.253334l39.822222 39.822222a27.875556 27.875556 0 0 0 39.253334 0L796.444444 306.062222v116.622222a27.875556 27.875556 0 0 0 27.875556 27.875556h56.888889a27.875556 27.875556 0 0 0 29.013333-27.875556V142.222222a27.875556 27.875556 0 0 0-8.533333-19.911111zM432.355556 551.822222a27.875556 27.875556 0 0 0-39.253334 0L227.555556 717.937778v-113.777778a27.875556 27.875556 0 0 0-27.875556-27.875556h-56.888889a27.875556 27.875556 0 0 0-27.875555 27.875556v277.617778a29.013333 29.013333 0 0 0 28.444444 28.444444h279.324444a27.875556 27.875556 0 0 0 27.875556-27.875555v-56.888889a27.875556 27.875556 0 0 0-27.875556-29.013334h-113.777777l163.271111-165.546666a27.875556 27.875556 0 0 0 0-39.253334z" p-id="10867"/></symbol><symbol id="m-icon-navigation"><defs><style type="text/css"/></defs><path d="M512.18432 1024C229.421848 1024 0.18432 794.762472 0.18432 512 0.18432 229.237528 229.421848 0 512.18432 0 794.967277 0 1024.18432 229.237528 1024.18432 512 1024.18432 794.762472 794.967277 1024 512.18432 1024L512.18432 1024ZM512.18432 64C264.776101 64 64.18432 264.572298 64.18432 512 64.18432 759.427702 264.776101 960 512.18432 960 759.612022 960 960.18432 759.427702 960.18432 512 960.18432 264.572298 759.612022 64 512.18432 64L512.18432 64ZM251.18432 772.33888 424.95712 424.7728 772.5232 251 598.7504 598.56608 251.18432 772.33888 251.18432 772.33888ZM556.21792 469.55648C531.72384 446.14784 492.0336 446.14784 467.53952 469.55648 443.06592 492.94464 443.06592 530.85312 467.53952 554.26176 492.0336 577.64992 531.72384 577.64992 556.21792 554.26176 580.712 530.85312 580.712 492.94464 556.21792 469.55648L556.21792 469.55648Z" p-id="3904"/></symbol><symbol id="m-icon-recommend"><defs><style type="text/css"/></defs><path d="M836.042752 1011.318784L512.02184533 775.553024 187.97909333 1011.318784l123.731968-381.44136533L-12.288 387.16484267l399.45284267 0L512.02184533 12.681216l124.80238934 374.49454933L1036.288 387.17576533 712.26709333 629.87741867 836.042752 1011.318784z" p-id="3458"/></symbol><symbol id="m-icon-shopping"><defs><style type="text/css"/></defs><path d="M977.725502 166.326309c-223.348079-0.119465-446.696158-0.051199-670.044237-0.051199h-53.844517c-4.573797-32.852835-7.731083-59.886025-12.134216-86.748551C231.49682 17.814428 212.928568 1.106415 153.91293 0.253095 122.9374-0.207698 91.944803 0.13363 60.969273 0.253095c-32.511507 0.119465-59.561763 9.301192-60.875877 49.680313-1.194649 37.58023 11.605157 67.873104 50.636033 76.030847 17.322404 3.652211 35.719992 4.283668 53.417856 3.020754 27.818245-2.047969 40.123125 7.93588 44.696922 38.67248 9.966782 67.361112 24.60976 133.920102 37.136504 200.87162 19.7629 105.402135 38.058089 211.145598 59.681228 316.138139 9.369458 45.447844 24.063635 93.762845 80.416913 94.155372 195.632233 1.433578 391.264466 0.290129 586.896699 0.733855 32.784569 0.051199 48.570997-18.022127 50.584833-49.270719 2.286899-35.071468-20.257826-47.444614-49.390184-50.12404-12.953404-1.194649-26.077471-1.023984-39.099141-1.023984-148.37535-0.051199-296.750699 0.802121-445.057783-0.341328-95.059892-0.733856-76.559906 19.046111-95.332954-89.308513-0.494926-2.969555 1.51891-6.451102 3.874075-15.393899h51.233356c171.193137 0 342.369207-1.194649 513.562344 0.682656 53.844517 0.631457 85.980563-23.210315 103.132303-74.546069 21.9986-65.995799 44.594524-131.752668 66.695521-197.680202 38.655414-115.471315 24.217233-136.172868-95.452419-136.224068zM364.085743 814.627943c-53.844517-0.392527-99.633689 47.103286-99.58249 103.456565 0.051199 56.745806 44.099598 102.722709 99.480091 103.968556 57.001802 1.262914 104.753611-46.079301 104.753611-103.917357 0.051199-58.230584-45.243047-103.04697-104.651212-103.507764zM828.530965 818.39962c-55.482892 0.341328-100.504076 46.830223-99.975017 103.2859 0.546125 56.06315 46.932622 102.603244 102.040053 102.313115 58.640177-0.290129 103.234701-47.22275 101.869388-107.108776-1.297047-56.814072-45.618508-98.848634-103.934424-98.490239z" fill="" p-id="3923"/></symbol></svg>