<?xml version="1.0" standalone="no"?><!DOCTYPE svg PUBLIC "-//W3C//DTD SVG 1.1//EN" "http://www.w3.org/Graphics/SVG/1.1/DTD/svg11.dtd"><svg t="1572065095213" class="icon" viewBox="0 0 1024 1024" version="1.1" xmlns="http://www.w3.org/2000/svg" p-id="3573" xmlns:xlink="http://www.w3.org/1999/xlink" width="64" height="64"><defs><style type="text/css"></style></defs><path d="M893.956439 292.783736l1.486212 28.238025c0 26.751813 0 23.77939 0 47.558779 0 255.62844-199.152389 432.487651-474.101583 432.487651-35.669085 0-95.117559 0-95.117559 0 75.796805 74.310593 163.483304 120.383161 285.352677 120.383161 25.265602 0 50.531203-2.972424 75.796805-5.944847L864.232202 1023.99997 864.232202 842.682124c96.603771-66.879534 157.538457-169.428152 157.538457-286.838889C1021.770659 451.808405 972.725668 358.177058 893.956439 292.783736z" p-id="3574"></path><path d="M345.544264 726.757599c25.265602 4.458636 80.25544 8.917271 107.007254 8.917271 227.390414 0 378.984024-170.914364 378.984024-371.552965C831.535541 163.483304 641.300423 0 452.551517 0 225.161103 0 40.870833 163.483304 40.870833 364.121905c0 115.924525 44.586356 215.500719 126.328008 286.838889L167.198841 832.278641 345.544264 726.757599zM626.438305 319.53555c26.751813 0 47.558779 20.806966 47.558779 47.558779 0 26.751813-20.806966 47.558779-47.558779 47.558779-26.751813 0-47.558779-20.806966-47.558779-47.558779C578.879525 341.828727 599.686491 319.53555 626.438305 319.53555zM436.203187 319.53555c26.751813 0 47.558779 20.806966 47.558779 47.558779 0 26.751813-20.806966 47.558779-47.558779 47.558779-26.751813 0-47.558779-20.806966-47.558779-47.558779C388.644408 341.828727 410.937585 319.53555 436.203187 319.53555zM247.454281 319.53555c26.751813 0 47.558779 20.806966 47.558779 47.558779 0 26.751813-20.806966 47.558779-47.558779 47.558779-26.751813 0-47.558779-20.806966-47.558779-47.558779C199.895502 341.828727 220.702468 319.53555 247.454281 319.53555z" p-id="3575"></path></svg>