<?xml version="1.0" standalone="no"?><!DOCTYPE svg PUBLIC "-//W3C//DTD SVG 1.1//EN" "http://www.w3.org/Graphics/SVG/1.1/DTD/svg11.dtd"><svg t="1572065106766" class="icon" viewBox="0 0 1024 1024" version="1.1" xmlns="http://www.w3.org/2000/svg" p-id="3690" xmlns:xlink="http://www.w3.org/1999/xlink" width="64" height="64"><defs><style type="text/css"></style></defs><path d="M972.718545 128.399345 51.253826 128.399345c-27.447119 0-50.722218 23.074531-50.722218 51.52142l0 664.133909c0 28.568662 22.702048 51.544957 50.722218 51.544957l921.464719 0c27.473725 0 50.747801-23.074531 50.747801-51.544957L1023.466346 179.920766C1023.466346 151.352103 1000.791927 128.399345 972.718545 128.399345zM900.395356 230.694149 510.526951 541.620621 123.104247 230.694149 900.395356 230.694149zM921.172565 793.305851 102.826412 793.305851 102.826412 312.783773l367.541911 294.965965c22.102391 17.73185 58.263985 17.532305 80.290651 0l370.513592-295.491944L921.172565 793.305851z" p-id="3691"></path></svg>