<?xml version="1.0" standalone="no"?><!DOCTYPE svg PUBLIC "-//W3C//DTD SVG 1.1//EN" "http://www.w3.org/Graphics/SVG/1.1/DTD/svg11.dtd"><svg t="1572065112348" class="icon" viewBox="0 0 1024 1024" version="1.1" xmlns="http://www.w3.org/2000/svg" p-id="3806" xmlns:xlink="http://www.w3.org/1999/xlink" width="64" height="64"><defs><style type="text/css"></style></defs><path d="M512 32C248 32 32 248 32 512s216 480 480 480 480-216 480-480S776 32 512 32zM147.2 512c0-72 19.2-134.4 52.8-192V334.4c-43.2 76.8-14.4 182.4 9.6 235.2 24 52.8 177.6 105.6 206.4 105.6 9.6 0 19.2 9.6 19.2 14.4 52.8 96 182.4 144 225.6 158.4-43.2 19.2-96 33.6-148.8 33.6-201.6-4.8-364.8-168-364.8-369.6z m590.4 288c-19.2-28.8-24-76.8-24-96-4.8-28.8 9.6-172.8-19.2-187.2-28.8-14.4-129.6 28.8-168 52.8-38.4 24-91.2 52.8-124.8 38.4-33.6-14.4-48-62.4-33.6-96 14.4-28.8 76.8-28.8 81.6-28.8h28.8c4.8 0 9.6-9.6 4.8-14.4-4.8-9.6-19.2-24-33.6-33.6-19.2-19.2-19.2-52.8 0-100.8s0-91.2-24-105.6c-24-14.4-52.8 9.6-86.4 43.2-38.4 33.6-76.8 28.8-105.6 14.4-4.8 0-4.8-4.8-4.8-4.8C296 200 396.8 147.2 512 147.2c91.2 0 177.6 33.6 244.8 91.2 0 0 0 48-14.4 67.2-9.6 19.2-48 67.2-9.6 86.4 33.6 14.4 96-4.8 129.6 9.6 9.6 33.6 19.2 72 19.2 110.4-4.8 115.2-57.6 220.8-144 288z" fill="" p-id="3807"></path></svg>