<?xml version="1.0" standalone="no"?><!DOCTYPE svg PUBLIC "-//W3C//DTD SVG 1.1//EN" "http://www.w3.org/Graphics/SVG/1.1/DTD/svg11.dtd"><svg t="1572068502068" class="icon" viewBox="0 0 1024 1024" version="1.1" xmlns="http://www.w3.org/2000/svg" p-id="10866" xmlns:xlink="http://www.w3.org/1999/xlink" width="64" height="64"><defs><style type="text/css"></style></defs><path d="M901.688889 122.311111A27.875556 27.875556 0 0 0 881.777778 113.777778h-280.462222a27.875556 27.875556 0 0 0-27.875556 27.875555v56.888889a27.875556 27.875556 0 0 0 27.875556 27.875556h113.777777L551.822222 393.102222a27.875556 27.875556 0 0 0 0 39.253334l39.822222 39.822222a27.875556 27.875556 0 0 0 39.253334 0L796.444444 306.062222v116.622222a27.875556 27.875556 0 0 0 27.875556 27.875556h56.888889a27.875556 27.875556 0 0 0 29.013333-27.875556V142.222222a27.875556 27.875556 0 0 0-8.533333-19.911111zM432.355556 551.822222a27.875556 27.875556 0 0 0-39.253334 0L227.555556 717.937778v-113.777778a27.875556 27.875556 0 0 0-27.875556-27.875556h-56.888889a27.875556 27.875556 0 0 0-27.875555 27.875556v277.617778a29.013333 29.013333 0 0 0 28.444444 28.444444h279.324444a27.875556 27.875556 0 0 0 27.875556-27.875555v-56.888889a27.875556 27.875556 0 0 0-27.875556-29.013334h-113.777777l163.271111-165.546666a27.875556 27.875556 0 0 0 0-39.253334z" p-id="10867"></path></svg>