<?xml version="1.0" standalone="no"?><!DOCTYPE svg PUBLIC "-//W3C//DTD SVG 1.1//EN" "http://www.w3.org/Graphics/SVG/1.1/DTD/svg11.dtd"><svg t="1572065390408" class="icon" viewBox="0 0 1025 1024" version="1.1" xmlns="http://www.w3.org/2000/svg" p-id="3903" xmlns:xlink="http://www.w3.org/1999/xlink" width="64.0625" height="64"><defs><style type="text/css"></style></defs><path d="M512.18432 1024C229.421848 1024 0.18432 794.762472 0.18432 512 0.18432 229.237528 229.421848 0 512.18432 0 794.967277 0 1024.18432 229.237528 1024.18432 512 1024.18432 794.762472 794.967277 1024 512.18432 1024L512.18432 1024ZM512.18432 64C264.776101 64 64.18432 264.572298 64.18432 512 64.18432 759.427702 264.776101 960 512.18432 960 759.612022 960 960.18432 759.427702 960.18432 512 960.18432 264.572298 759.612022 64 512.18432 64L512.18432 64ZM251.18432 772.33888 424.95712 424.7728 772.5232 251 598.7504 598.56608 251.18432 772.33888 251.18432 772.33888ZM556.21792 469.55648C531.72384 446.14784 492.0336 446.14784 467.53952 469.55648 443.06592 492.94464 443.06592 530.85312 467.53952 554.26176 492.0336 577.64992 531.72384 577.64992 556.21792 554.26176 580.712 530.85312 580.712 492.94464 556.21792 469.55648L556.21792 469.55648Z" p-id="3904"></path></svg>