<?xml version="1.0" standalone="no"?><!DOCTYPE svg PUBLIC "-//W3C//DTD SVG 1.1//EN" "http://www.w3.org/Graphics/SVG/1.1/DTD/svg11.dtd"><svg t="1572065120263" class="icon" viewBox="0 0 1092 1024" version="1.1" xmlns="http://www.w3.org/2000/svg" p-id="3922" xmlns:xlink="http://www.w3.org/1999/xlink" width="68.25" height="64"><defs><style type="text/css"></style></defs><path d="M977.725502 166.326309c-223.348079-0.119465-446.696158-0.051199-670.044237-0.051199h-53.844517c-4.573797-32.852835-7.731083-59.886025-12.134216-86.748551C231.49682 17.814428 212.928568 1.106415 153.91293 0.253095 122.9374-0.207698 91.944803 0.13363 60.969273 0.253095c-32.511507 0.119465-59.561763 9.301192-60.875877 49.680313-1.194649 37.58023 11.605157 67.873104 50.636033 76.030847 17.322404 3.652211 35.719992 4.283668 53.417856 3.020754 27.818245-2.047969 40.123125 7.93588 44.696922 38.67248 9.966782 67.361112 24.60976 133.920102 37.136504 200.87162 19.7629 105.402135 38.058089 211.145598 59.681228 316.138139 9.369458 45.447844 24.063635 93.762845 80.416913 94.155372 195.632233 1.433578 391.264466 0.290129 586.896699 0.733855 32.784569 0.051199 48.570997-18.022127 50.584833-49.270719 2.286899-35.071468-20.257826-47.444614-49.390184-50.12404-12.953404-1.194649-26.077471-1.023984-39.099141-1.023984-148.37535-0.051199-296.750699 0.802121-445.057783-0.341328-95.059892-0.733856-76.559906 19.046111-95.332954-89.308513-0.494926-2.969555 1.51891-6.451102 3.874075-15.393899h51.233356c171.193137 0 342.369207-1.194649 513.562344 0.682656 53.844517 0.631457 85.980563-23.210315 103.132303-74.546069 21.9986-65.995799 44.594524-131.752668 66.695521-197.680202 38.655414-115.471315 24.217233-136.172868-95.452419-136.224068zM364.085743 814.627943c-53.844517-0.392527-99.633689 47.103286-99.58249 103.456565 0.051199 56.745806 44.099598 102.722709 99.480091 103.968556 57.001802 1.262914 104.753611-46.079301 104.753611-103.917357 0.051199-58.230584-45.243047-103.04697-104.651212-103.507764zM828.530965 818.39962c-55.482892 0.341328-100.504076 46.830223-99.975017 103.2859 0.546125 56.06315 46.932622 102.603244 102.040053 102.313115 58.640177-0.290129 103.234701-47.22275 101.869388-107.108776-1.297047-56.814072-45.618508-98.848634-103.934424-98.490239z" fill="" p-id="3923"></path></svg>