<?xml version="1.0" standalone="no"?><!DOCTYPE svg PUBLIC "-//W3C//DTD SVG 1.1//EN" "http://www.w3.org/Graphics/SVG/1.1/DTD/svg11.dtd"><svg t="1572058058491" class="icon" viewBox="0 0 1034 1024" version="1.1" xmlns="http://www.w3.org/2000/svg" p-id="1490" xmlns:xlink="http://www.w3.org/1999/xlink" width="64.625" height="64"><defs><style type="text/css"></style></defs><path d="M249.799427 327.707596a339.004885 327.707596 0 1 0 678.00977 0 339.004885 327.707596 0 1 0-678.00977 0Z" fill="#C9EAF2" p-id="1491"></path><path d="M783.134917 699.500488c0 1.966246 80.029645 57.279838 80.029644 108.764427s-35.840862 77.614957-80.029644 77.614957-80.029645-26.078626-80.029645-77.563214 80.029645-110.74792 80.029645-108.81617z" fill="#6BAFFF" p-id="1492"></path><path d="M0 379.450901a285.48506 275.964292 0 1 0 570.97012 0 285.48506 275.964292 0 1 0-570.97012 0Z" fill="#C9EAF2" p-id="1493"></path><path d="M535.267239 413.946438a249.799427 241.468755 0 1 0 499.598855 0 249.799427 241.468755 0 1 0-499.598855 0Z" fill="#C9EAF2" p-id="1494"></path><path d="M285.519555 655.415193l487.88762-0.275964 10.158936-178.031464-548.617012-54.037258z" fill="#C9EAF2" p-id="1495"></path><path d="M321.170692 344.955365a258.716523 241.468755 0 1 0 517.433047 0 258.716523 241.468755 0 1 0-517.433047 0Z" fill="#FFFFFF" p-id="1496"></path><path d="M142.74253 379.450901a223.030891 206.973219 0 1 0 446.061782 0 223.030891 206.973219 0 1 0-446.061782 0Z" fill="#FFFFFF" p-id="1497"></path><path d="M553.118679 405.322553a187.345259 181.101566 0 1 0 374.690518 0 187.345259 181.101566 0 1 0-374.690518 0Z" fill="#FFFFFF" p-id="1498"></path><path d="M363.858919 586.42412h386.815698l-78.684319-138.482331-267.150682-6.899108z" fill="#FFFFFF" p-id="1499"></path><path d="M551.186929 837.482634c0 1.966246 80.029645 57.279838 80.029645 108.764427s-35.840862 77.614957-80.029645 77.614957-80.029645-26.078626-80.029644-77.563214 80.029645-110.74792 80.029644-108.81617z" fill="#6BAFFF" p-id="1500"></path><path d="M319.238942 699.500488c0 1.966246 80.029645 57.279838 80.029645 108.764427s-35.840862 77.614957-80.029645 77.614957-80.029645-26.078626-80.029644-77.563214 80.029645-110.74792 80.029644-108.81617z" fill="#6BAFFF" p-id="1501"></path></svg>