<?xml version="1.0" standalone="no"?><!DOCTYPE svg PUBLIC "-//W3C//DTD SVG 1.1//EN" "http://www.w3.org/Graphics/SVG/1.1/DTD/svg11.dtd"><svg t="1572058093743" class="icon" viewBox="0 0 1176 1024" version="1.1" xmlns="http://www.w3.org/2000/svg" p-id="1913" xmlns:xlink="http://www.w3.org/1999/xlink" width="73.5" height="64"><defs><style type="text/css"></style></defs><path d="M532.916972 958.846527l65.153473-65.153474 65.153473 65.153474-65.153473 65.153473z" fill="#6BAFFF" p-id="1914"></path><path d="M532.916972 774.56536l65.153473-65.153474 65.153473 65.153474-65.153473 65.153473z" fill="#6BAFFF" p-id="1915"></path><path d="M749.206106 678.12959c0 1.235602 48.364981 35.812836 48.364981 67.997318a45.364234 45.364234 0 0 1-48.364981 48.600333 45.364234 45.364234 0 0 1-48.364981-48.561107c0-32.204095 48.364981-69.23292 48.364981-68.036544z" fill="#6BAFFF" p-id="1916"></path><path d="M443.169141 678.12959c0 1.235602 48.364981 35.812836 48.36498 67.997318a45.364234 45.364234 0 0 1-48.36498 48.600333 45.364234 45.364234 0 0 1-48.364981-48.561107c0-32.204095 48.364981-69.23292 48.364981-68.036544z" fill="#6BAFFF" p-id="1917"></path><path d="M749.206106 833.246634c0 1.451342 57.190707 42.343874 57.190707 80.412174a53.660416 53.660416 0 0 1-57.190707 57.465285 53.660416 53.660416 0 0 1-57.190707-57.465285c0-38.029074 57.190707-81.843903 57.190707-80.412174z" fill="#6BAFFF" p-id="1918"></path><path d="M443.169141 833.246634c0 1.451342 57.190707 42.343874 57.190707 80.412174a53.660416 53.660416 0 0 1-57.190707 57.465285 53.660416 53.660416 0 0 1-57.190707-57.465285c0-38.029074 57.190707-81.843903 57.190707-80.412174z" fill="#6BAFFF" p-id="1919"></path><path d="M636.864416 366.679512m-366.679512 0a366.679512 366.679512 0 1 0 733.359024 0 366.679512 366.679512 0 1 0-733.359024 0Z" fill="#C9EAF2" p-id="1920"></path><path d="M308.782747 424.576277m-308.782747 0a308.782747 308.782747 0 1 0 617.565494 0 308.782747 308.782747 0 1 0-617.565494 0Z" fill="#C9EAF2" p-id="1921"></path><path d="M849.172167 463.17412m-270.184904 0a270.184904 270.184904 0 1 0 540.369807 0 270.184904 270.184904 0 1 0-540.369807 0Z" fill="#C9EAF2" p-id="1922"></path><path d="M308.80236 733.378637l527.719599-0.294191 11.002739-199.206451-593.402616-60.466032z" fill="#C9EAF2" p-id="1923"></path><path d="M347.38059 385.978434a279.834364 270.184904 0 1 0 559.668729 0 279.834364 270.184904 0 1 0-559.668729 0Z" fill="#FFFFFF" p-id="1924"></path><path d="M154.391373 424.576277a241.236521 231.58706 0 1 0 482.473043 0 241.236521 231.58706 0 1 0-482.473043 0Z" fill="#FFFFFF" p-id="1925"></path><path d="M800.90525 453.52466m-202.638678 0a202.638678 202.638678 0 1 0 405.277356 0 202.638678 202.638678 0 1 0-405.277356 0Z" fill="#FFFFFF" p-id="1926"></path><path d="M393.568558 656.163337H811.966827l-85.099615-154.94053-288.954282-7.648962z" fill="#FFFFFF" p-id="1927"></path><path d="M1152.443738 72.25328l-581.713432 340.163107h250.415276l-263.516577 272.499205 619.173738-364.639788h-240.118596z" fill="#FFD54F" p-id="1928"></path></svg>